<mxfile host="app.diagrams.net" agent="Mozilla/5.0 (Windows NT 10.0; Win64; x64) AppleWebKit/537.36 (KHTML, like Gecko) Chrome/132.0.0.0 Safari/537.36" version="26.0.10" pages="2">
  <diagram name="Small (Phone) Size" id="N-O08OQEMZONFU_e-OeA">
    <mxGraphModel grid="1" page="1" gridSize="10" guides="1" tooltips="1" connect="1" arrows="1" fold="1" pageScale="1" pageWidth="850" pageHeight="1100" math="0" shadow="0">
      <root>
        <mxCell id="0" />
        <mxCell id="1" parent="0" />
        <mxCell id="JAdM_JAL3V7lCmd67JW1-1" value="" style="rounded=0;whiteSpace=wrap;html=1;" vertex="1" parent="1">
          <mxGeometry x="240.5" y="210" width="359" height="800" as="geometry" />
        </mxCell>
        <mxCell id="4AnQR1ObLkiOztBNg5QA-22" value="" style="rounded=0;whiteSpace=wrap;html=1;fillColor=#bac8d3;strokeColor=#23445d;" vertex="1" parent="1">
          <mxGeometry x="240.5" y="260" width="359.5" height="750" as="geometry" />
        </mxCell>
        <mxCell id="4AnQR1ObLkiOztBNg5QA-24" value="" style="endArrow=none;html=1;rounded=0;exitX=0;exitY=1;exitDx=0;exitDy=0;" edge="1" parent="1" source="4AnQR1ObLkiOztBNg5QA-22">
          <mxGeometry width="50" height="50" relative="1" as="geometry">
            <mxPoint x="549.5" y="310" as="sourcePoint" />
            <mxPoint x="599.5" y="260" as="targetPoint" />
          </mxGeometry>
        </mxCell>
        <mxCell id="4AnQR1ObLkiOztBNg5QA-26" value="" style="endArrow=none;html=1;rounded=0;exitX=1;exitY=1;exitDx=0;exitDy=0;entryX=0;entryY=0;entryDx=0;entryDy=0;" edge="1" parent="1" source="4AnQR1ObLkiOztBNg5QA-22" target="4AnQR1ObLkiOztBNg5QA-22">
          <mxGeometry width="50" height="50" relative="1" as="geometry">
            <mxPoint x="138.5" y="1020" as="sourcePoint" />
            <mxPoint x="497" y="270" as="targetPoint" />
          </mxGeometry>
        </mxCell>
        <mxCell id="4AnQR1ObLkiOztBNg5QA-28" value="" style="rounded=0;whiteSpace=wrap;html=1;strokeWidth=0;fillColor=#E6E6E6;" vertex="1" parent="1">
          <mxGeometry x="280.25" y="417" width="289" height="350" as="geometry" />
        </mxCell>
        <mxCell id="4AnQR1ObLkiOztBNg5QA-19" value="" style="rounded=0;whiteSpace=wrap;html=1;" vertex="1" parent="1">
          <mxGeometry x="275.5" y="410" width="289" height="350" as="geometry" />
        </mxCell>
        <mxCell id="JAdM_JAL3V7lCmd67JW1-2" value="Login Page&lt;div&gt;Allows users to login using their credentials or create a new account (redirects to Register page)&lt;/div&gt;" style="text;html=1;align=center;verticalAlign=middle;whiteSpace=wrap;rounded=0;" vertex="1" parent="1">
          <mxGeometry x="310" y="20" width="225" height="180" as="geometry" />
        </mxCell>
        <mxCell id="JAdM_JAL3V7lCmd67JW1-3" value="Small size / phone layout&lt;div&gt;(360 x 800)&lt;/div&gt;" style="text;html=1;align=center;verticalAlign=middle;whiteSpace=wrap;rounded=0;" vertex="1" parent="1">
          <mxGeometry x="370.5" y="150" width="110" height="60" as="geometry" />
        </mxCell>
        <mxCell id="4AnQR1ObLkiOztBNg5QA-1" value="" style="rounded=0;whiteSpace=wrap;html=1;" vertex="1" parent="1">
          <mxGeometry x="240" y="210" width="360" height="50" as="geometry" />
        </mxCell>
        <mxCell id="4AnQR1ObLkiOztBNg5QA-2" value="header" style="text;html=1;align=center;verticalAlign=middle;whiteSpace=wrap;rounded=0;" vertex="1" parent="1">
          <mxGeometry x="400" y="230" width="40" height="10" as="geometry" />
        </mxCell>
        <mxCell id="4AnQR1ObLkiOztBNg5QA-3" value="" style="shape=image;html=1;verticalAlign=top;verticalLabelPosition=bottom;labelBackgroundColor=#ffffff;imageAspect=0;aspect=fixed;image=https://cdn4.iconfinder.com/data/icons/evil-icons-user-interface/64/menu-128.png" vertex="1" parent="1">
          <mxGeometry x="550" y="215.75" width="38.5" height="38.5" as="geometry" />
        </mxCell>
        <mxCell id="4AnQR1ObLkiOztBNg5QA-5" value="" style="ellipse;whiteSpace=wrap;html=1;aspect=fixed;fillColor=#1ba1e2;strokeColor=#006EAF;fontColor=#ffffff;strokeWidth=0;" vertex="1" parent="1">
          <mxGeometry x="250" y="215.75" width="34.25" height="34.25" as="geometry" />
        </mxCell>
        <mxCell id="4AnQR1ObLkiOztBNg5QA-6" value="&lt;font style=&quot;color: rgb(255, 255, 255);&quot;&gt;logo&lt;/font&gt;" style="text;html=1;align=center;verticalAlign=middle;whiteSpace=wrap;rounded=0;" vertex="1" parent="1">
          <mxGeometry x="247.13" y="227.88" width="40" height="10" as="geometry" />
        </mxCell>
        <mxCell id="4AnQR1ObLkiOztBNg5QA-7" value="Rec Service&lt;div&gt;&lt;br&gt;&lt;/div&gt;&lt;div&gt;lorem ipsum&lt;/div&gt;" style="text;html=1;align=center;verticalAlign=middle;whiteSpace=wrap;rounded=0;" vertex="1" parent="1">
          <mxGeometry x="380" y="440" width="80" height="50" as="geometry" />
        </mxCell>
        <mxCell id="4AnQR1ObLkiOztBNg5QA-8" value="&lt;font style=&quot;color: rgb(204, 204, 204);&quot;&gt;user&lt;/font&gt;" style="rounded=1;whiteSpace=wrap;html=1;" vertex="1" parent="1">
          <mxGeometry x="312.5" y="520" width="215" height="30" as="geometry" />
        </mxCell>
        <mxCell id="4AnQR1ObLkiOztBNg5QA-9" value="&lt;font style=&quot;color: rgb(204, 204, 204);&quot;&gt;password&lt;/font&gt;" style="rounded=1;whiteSpace=wrap;html=1;" vertex="1" parent="1">
          <mxGeometry x="314.5" y="580" width="215" height="30" as="geometry" />
        </mxCell>
        <mxCell id="4AnQR1ObLkiOztBNg5QA-10" value="&lt;font style=&quot;color: rgb(255, 255, 255);&quot;&gt;Log in&lt;/font&gt;" style="rounded=1;whiteSpace=wrap;html=1;strokeWidth=0;fillColor=#1ba1e2;fontColor=#ffffff;strokeColor=#006EAF;" vertex="1" parent="1">
          <mxGeometry x="312.5" y="680" width="215" height="30" as="geometry" />
        </mxCell>
        <mxCell id="4AnQR1ObLkiOztBNg5QA-11" value="" style="whiteSpace=wrap;html=1;aspect=fixed;" vertex="1" parent="1">
          <mxGeometry x="312.5" y="721.5" width="10" height="10" as="geometry" />
        </mxCell>
        <mxCell id="4AnQR1ObLkiOztBNg5QA-13" value="Keep me logged in" style="text;html=1;align=center;verticalAlign=middle;whiteSpace=wrap;rounded=0;fontSize=8;" vertex="1" parent="1">
          <mxGeometry x="328" y="720" width="69.5" height="13" as="geometry" />
        </mxCell>
        <mxCell id="4AnQR1ObLkiOztBNg5QA-14" value="" style="endArrow=none;html=1;rounded=0;" edge="1" parent="1">
          <mxGeometry width="50" height="50" relative="1" as="geometry">
            <mxPoint x="331.5" y="650" as="sourcePoint" />
            <mxPoint x="508.5" y="650.4300000000001" as="targetPoint" />
          </mxGeometry>
        </mxCell>
        <mxCell id="4AnQR1ObLkiOztBNg5QA-17" value="Forgot password?" style="text;html=1;align=center;verticalAlign=middle;whiteSpace=wrap;rounded=0;fontSize=8;fontStyle=4;fontColor=light-dark(#0066CC,#EDEDED);" vertex="1" parent="1">
          <mxGeometry x="460" y="614" width="69.5" height="13" as="geometry" />
        </mxCell>
        <mxCell id="4AnQR1ObLkiOztBNg5QA-20" value="Forgot username?" style="text;html=1;align=center;verticalAlign=middle;whiteSpace=wrap;rounded=0;fontSize=8;fontStyle=4;fontColor=light-dark(#0066CC,#EDEDED);" vertex="1" parent="1">
          <mxGeometry x="460" y="552" width="69.5" height="13" as="geometry" />
        </mxCell>
      </root>
    </mxGraphModel>
  </diagram>
  <diagram id="t_3v_Z-kGu1knByQipud" name="Large Screen Size">
    <mxGraphModel grid="1" page="1" gridSize="10" guides="1" tooltips="1" connect="1" arrows="1" fold="1" pageScale="1" pageWidth="850" pageHeight="1100" math="0" shadow="0">
      <root>
        <mxCell id="0" />
        <mxCell id="1" parent="0" />
        <mxCell id="M70zk-2mXlEuVTkneo7i-1" value="Login Page&lt;div&gt;Allows users to login using their credentials or create a new account (redirects to Register page)&lt;/div&gt;" style="text;html=1;align=center;verticalAlign=middle;whiteSpace=wrap;rounded=0;" vertex="1" parent="1">
          <mxGeometry x="161" y="90" width="530" height="40" as="geometry" />
        </mxCell>
        <mxCell id="M70zk-2mXlEuVTkneo7i-2" value="Large size&lt;div&gt;(1920 x 1080)&lt;/div&gt;" style="text;html=1;align=center;verticalAlign=middle;whiteSpace=wrap;rounded=0;" vertex="1" parent="1">
          <mxGeometry x="370.5" y="160" width="110" height="60" as="geometry" />
        </mxCell>
        <mxCell id="M70zk-2mXlEuVTkneo7i-3" value="" style="rounded=0;whiteSpace=wrap;html=1;fillColor=#1ba1e2;fontColor=#ffffff;strokeColor=#006EAF;" vertex="1" parent="1">
          <mxGeometry x="-532" y="230" width="1919" height="1080" as="geometry" />
        </mxCell>
        <mxCell id="JrbPO3LLUjLGlz1DGCsI-1" value="" style="rounded=0;whiteSpace=wrap;html=1;fillColor=#bac8d3;strokeColor=#23445d;" vertex="1" parent="1">
          <mxGeometry x="-455" y="360" width="1765" height="810" as="geometry" />
        </mxCell>
        <mxCell id="JrbPO3LLUjLGlz1DGCsI-2" value="" style="endArrow=none;html=1;rounded=0;exitX=0;exitY=1;exitDx=0;exitDy=0;entryX=1;entryY=0;entryDx=0;entryDy=0;" edge="1" parent="1" source="JrbPO3LLUjLGlz1DGCsI-1" target="JrbPO3LLUjLGlz1DGCsI-1">
          <mxGeometry width="50" height="50" relative="1" as="geometry">
            <mxPoint x="1334.5" y="280" as="sourcePoint" />
            <mxPoint x="1384.5" y="230" as="targetPoint" />
          </mxGeometry>
        </mxCell>
        <mxCell id="JrbPO3LLUjLGlz1DGCsI-3" value="" style="endArrow=none;html=1;rounded=0;exitX=1;exitY=1;exitDx=0;exitDy=0;entryX=0;entryY=0;entryDx=0;entryDy=0;" edge="1" parent="1" source="JrbPO3LLUjLGlz1DGCsI-1" target="JrbPO3LLUjLGlz1DGCsI-1">
          <mxGeometry width="50" height="50" relative="1" as="geometry">
            <mxPoint x="923.5" y="990" as="sourcePoint" />
            <mxPoint x="1282" y="240" as="targetPoint" />
          </mxGeometry>
        </mxCell>
        <mxCell id="vT_IUWXNt1hnR-QIH6gM-1" value="" style="rounded=0;whiteSpace=wrap;html=1;strokeWidth=0;fillColor=#E6E6E6;" vertex="1" parent="1">
          <mxGeometry x="-410" y="360" width="410" height="830" as="geometry" />
        </mxCell>
        <mxCell id="vT_IUWXNt1hnR-QIH6gM-2" value="" style="rounded=0;whiteSpace=wrap;html=1;strokeWidth=0;" vertex="1" parent="1">
          <mxGeometry x="-420" y="350" width="410" height="830" as="geometry" />
        </mxCell>
        <mxCell id="vT_IUWXNt1hnR-QIH6gM-3" value="Rec Service&lt;div&gt;&lt;br&gt;&lt;/div&gt;&lt;div&gt;lorem ipsum&lt;/div&gt;" style="text;html=1;align=center;verticalAlign=middle;whiteSpace=wrap;rounded=0;fontSize=13;" vertex="1" parent="1">
          <mxGeometry x="-270" y="590" width="110" height="70" as="geometry" />
        </mxCell>
        <mxCell id="vT_IUWXNt1hnR-QIH6gM-4" value="&lt;font style=&quot;color: rgb(204, 204, 204); font-size: 13px;&quot;&gt;user&lt;/font&gt;" style="rounded=1;whiteSpace=wrap;html=1;" vertex="1" parent="1">
          <mxGeometry x="-322.5" y="680" width="215" height="30" as="geometry" />
        </mxCell>
        <mxCell id="vT_IUWXNt1hnR-QIH6gM-5" value="&lt;font style=&quot;color: rgb(204, 204, 204); font-size: 13px;&quot;&gt;password&lt;/font&gt;" style="rounded=1;whiteSpace=wrap;html=1;" vertex="1" parent="1">
          <mxGeometry x="-322.5" y="740" width="215" height="30" as="geometry" />
        </mxCell>
        <mxCell id="vT_IUWXNt1hnR-QIH6gM-6" value="&lt;font style=&quot;color: rgb(255, 255, 255); font-size: 13px;&quot;&gt;Log in&lt;/font&gt;" style="rounded=1;whiteSpace=wrap;html=1;strokeWidth=0;fillColor=#1ba1e2;fontColor=#ffffff;strokeColor=#006EAF;" vertex="1" parent="1">
          <mxGeometry x="-322.5" y="840" width="215" height="30" as="geometry" />
        </mxCell>
        <mxCell id="vT_IUWXNt1hnR-QIH6gM-7" value="" style="whiteSpace=wrap;html=1;aspect=fixed;" vertex="1" parent="1">
          <mxGeometry x="-322.5" y="881.5" width="12" height="12" as="geometry" />
        </mxCell>
        <mxCell id="vT_IUWXNt1hnR-QIH6gM-8" value="Keep me logged in" style="text;html=1;align=center;verticalAlign=middle;whiteSpace=wrap;rounded=0;fontSize=10;" vertex="1" parent="1">
          <mxGeometry x="-309" y="880" width="87.5" height="13" as="geometry" />
        </mxCell>
        <mxCell id="vT_IUWXNt1hnR-QIH6gM-9" value="" style="endArrow=none;html=1;rounded=0;" edge="1" parent="1">
          <mxGeometry width="50" height="50" relative="1" as="geometry">
            <mxPoint x="-300" y="810" as="sourcePoint" />
            <mxPoint x="-123" y="810.4300000000001" as="targetPoint" />
          </mxGeometry>
        </mxCell>
        <mxCell id="vT_IUWXNt1hnR-QIH6gM-10" value="Forgot password?" style="text;html=1;align=center;verticalAlign=middle;whiteSpace=wrap;rounded=0;fontSize=10;fontStyle=4;fontColor=light-dark(#0066CC,#EDEDED);" vertex="1" parent="1">
          <mxGeometry x="-191.5" y="774" width="84" height="13" as="geometry" />
        </mxCell>
        <mxCell id="vT_IUWXNt1hnR-QIH6gM-11" value="Forgot username?" style="text;html=1;align=center;verticalAlign=middle;whiteSpace=wrap;rounded=0;fontSize=10;fontStyle=4;fontColor=light-dark(#0066CC,#EDEDED);" vertex="1" parent="1">
          <mxGeometry x="-191.5" y="712" width="84" height="13" as="geometry" />
        </mxCell>
        <mxCell id="UrfT8bZQS8wqX0cNZLv1-1" value="" style="rounded=0;whiteSpace=wrap;html=1;strokeWidth=0;" vertex="1" parent="1">
          <mxGeometry x="-533.5" y="230" width="1922" height="80" as="geometry" />
        </mxCell>
        <mxCell id="t2Q_HINQcNQiz4O4piLD-5" value="" style="ellipse;whiteSpace=wrap;html=1;aspect=fixed;fillColor=#1ba1e2;fontColor=#ffffff;strokeColor=#006EAF;strokeWidth=0;" vertex="1" parent="1">
          <mxGeometry x="-500" y="242.5" width="55" height="55" as="geometry" />
        </mxCell>
        <mxCell id="t2Q_HINQcNQiz4O4piLD-6" value="Header" style="text;strokeColor=none;fillColor=none;html=1;fontSize=24;fontStyle=0;verticalAlign=middle;align=center;" vertex="1" parent="1">
          <mxGeometry x="377.5" y="250" width="100" height="40" as="geometry" />
        </mxCell>
        <mxCell id="t2Q_HINQcNQiz4O4piLD-8" value="" style="shape=image;html=1;verticalAlign=top;verticalLabelPosition=bottom;labelBackgroundColor=#ffffff;imageAspect=0;aspect=fixed;image=https://cdn0.iconfinder.com/data/icons/user-interface-1-32/32/hamburger-menu-128.png" vertex="1" parent="1">
          <mxGeometry x="1300" y="230" width="78" height="78" as="geometry" />
        </mxCell>
        <mxCell id="t2Q_HINQcNQiz4O4piLD-9" value="logo" style="text;strokeColor=none;fillColor=none;html=1;fontSize=18;fontStyle=1;verticalAlign=middle;align=center;fontColor=#FFFFFF;" vertex="1" parent="1">
          <mxGeometry x="-500" y="250" width="55" height="40" as="geometry" />
        </mxCell>
      </root>
    </mxGraphModel>
  </diagram>
</mxfile>
